<svg xmlns="http://www.w3.org/2000/svg" width="20" height="20" viewBox="0 0 20 20" fill="none">
  <path d="M10 20C4.47715 20 0 15.5228 0 10C0 4.47715 4.47715 0 10 0C15.5228 0 20 4.47715 20 10C20 15.5228 15.5228 20 10 20ZM10 19C14.9706 19 19 14.9706 19 10C19 5.02944 14.9706 1 10 1C5.02944 1 1 5.02944 1 10C1 14.9706 5.02944 19 10 19ZM6 6.81797C6 6.48677 6.09138 6.16198 6.26409 5.87936C6.78247 5.03111 7.89035 4.76369 8.73861 5.28207L14.2248 8.63475C14.4414 8.76711 14.6234 8.94909 14.7557 9.16568C15.2165 9.91969 14.9788 10.9045 14.2248 11.3653L8.73861 14.7179C8.456 14.8906 8.13121 14.982 7.8 14.982C6.80589 14.982 6 14.1761 6 13.182V6.81797ZM7 6.81797V13.182C7 13.6239 7.35817 13.982 7.8 13.982C7.9472 13.982 8.09155 13.9414 8.21716 13.8647L13.7034 10.512C13.9861 10.3392 14.0753 9.96988 13.9025 9.68713C13.8528 9.60591 13.7846 9.53766 13.7034 9.48803L8.21716 6.13535C7.84016 5.90496 7.34777 6.02381 7.11737 6.40081C7.04062 6.52642 7 6.67077 7 6.81797Z" fill="white"/>
</svg>